<?xml version="1.0" encoding="utf-8"?>
<!-- Svg Vector Icons : http://www.onlinewebfonts.com/icon -->
<!DOCTYPE svg PUBLIC "-//W3C//DTD SVG 1.1//EN" "http://www.w3.org/Graphics/SVG/1.1/DTD/svg11.dtd">
<svg version="1.1" xmlns="http://www.w3.org/2000/svg" xmlns:xlink="http://www.w3.org/1999/xlink" x="0px" y="0px" viewBox="0 0 256 256" enable-background="new 0 0 256 256" xml:space="preserve">
<metadata> Svg Vector Icons : http://www.onlinewebfonts.com/icon </metadata>
<g><g><g><path fill="#000000" d="M93.7,12.5c-2.8,1.3-7.1,3.8-9.4,5.4c-5.6,3.8-13.7,11.6-18,17.4L63,39.9l-4.2-3.6c-3.6-3.1-4.4-3.6-5.9-3.6c-2.4,0-4,1.6-4,3.9c0,1.4,0.8,2.5,6.2,8.9c3.9,4.6,6.8,7.5,7.8,7.9c2.2,1,4.7,0.1,6.1-2.1c0.6-0.9,2.4-4,4.2-6.7c6.6-10.6,15.2-20.1,24.8-27.5c2.7-2.1,4.9-4.1,4.9-4.5c0-0.4-0.2-1.1-0.5-1.6C101.6,9.4,99.3,9.8,93.7,12.5z"/><path fill="#000000" d="M30.9,12.4c-0.6,0.3-1.6,1.2-2.1,1.8c-1,1.3-1,1.6-1,29.3v27.9l1.5,1.3c0.9,0.8,2.2,1.4,3.5,1.6c1.1,0.1,13.4,0.2,27.4,0.1c23.4-0.1,25.5-0.2,26.7-1c2.7-1.8,2.6-1.3,2.5-21.2L89.3,34l-3,3.8c-1.7,2.1-4.2,5.3-5.4,7.2l-2.4,3.5v7.3v7.3H58.8H39.1V43.2V23.4h14h14.1l3.4-3.1c1.8-1.8,4.8-4.3,6.5-5.6c1.7-1.3,3.1-2.5,3.1-2.6c0-0.1-10.9-0.2-24.1-0.2C37.9,11.8,31.7,12,30.9,12.4z"/><path fill="#000000" d="M115.1,22.4c-0.5,0.2-1.5,1-2.2,1.8c-2.4,2.9-1.3,7.1,2.3,8.6c2.4,1,107.6,1,109.9,0c3.1-1.3,4.3-5.1,2.5-8c-1.9-3.1,2-2.9-57.6-2.9C140.3,22,115.6,22.2,115.1,22.4z"/><path fill="#000000" d="M115.1,47.6c-3.1,1.4-4.4,5.2-2.6,8.2c1.7,2.8,0.8,2.7,34.4,2.7c29.5,0,30.7,0,32-0.9c3.9-2.6,3.4-8.2-0.9-10C175.7,46.6,117.2,46.6,115.1,47.6z"/><path fill="#000000" d="M30.5,98.7c-3,1.8-2.9,0.9-2.9,30.6c0,26.2,0,27,0.9,28.5c1.8,2.9,1.4,2.9,30.5,2.9c28.8,0,28.5,0,30.3-2.7c0.8-1.2,0.8-3,0.8-28.7c0-26.5,0-27.5-0.9-28.8c-1.8-2.6-1.5-2.6-30.6-2.6C33,97.7,31.9,97.8,30.5,98.7z M78.4,129.1V149H58.8H39.1v-19.9v-19.9h19.6h19.6V129.1z"/><path fill="#000000" d="M115.1,108.5c-3.1,1.4-4.4,5.2-2.6,8.2c1.7,2.9-1.5,2.7,57.6,2.7c59.5,0,55.6,0.2,57.5-2.9c1.8-2.9,0.6-6.7-2.5-8C222.7,107.6,117.3,107.6,115.1,108.5z"/><path fill="#000000" d="M113.2,134.9c-1.3,1.3-1.6,1.9-1.6,3.5c0,1.1,0.3,2.5,0.7,3.3c1.5,2.9,0.4,2.8,34.2,2.8c33.8,0,32.7,0.1,34.2-2.8c0.4-0.7,0.7-2.2,0.7-3.3c0-1.5-0.3-2.2-1.6-3.5l-1.6-1.6h-31.7h-31.7L113.2,134.9z"/><path fill="#000000" d="M30.3,184.2c-0.8,0.6-1.8,1.6-2.1,2.2c-0.5,0.9-0.6,7.5-0.6,28.2c0,26.3,0,27.1,0.9,28.5c1.8,2.9,1.4,2.9,30.5,2.9c28.8,0,28.5,0,30.3-2.7c0.8-1.2,0.8-3,1-27.9c0.1-29.4,0.1-29.4-2.6-31.2l-1.6-1.1H59H31.9L30.3,184.2z M78.4,214.6v19.9H58.8H39.1v-19.9v-19.9h19.6h19.6V214.6z"/><path fill="#000000" d="M115.1,194c-2.2,1-3.4,2.8-3.4,5.2c0,1.7,0.3,2.4,1.6,3.8l1.6,1.7l54.6,0.1c60.3,0.1,56.4,0.3,58.2-2.8c1.8-2.9,0.6-6.7-2.5-8C222.7,193.1,117.3,193,115.1,194z"/><path fill="#000000" d="M113.2,220.3c-1.3,1.3-1.6,1.9-1.6,3.5c0,2.4,1,4.5,2.8,5.4c2,1.1,62.2,1.1,64.2,0c1.8-0.9,2.8-2.9,2.8-5.4c0-1.5-0.3-2.2-1.6-3.5l-1.6-1.6h-31.7h-31.7L113.2,220.3z"/></g></g></g>
</svg>